
mtllib »ú¹ñ_¼ò»¯_±³Ãæ×ó.mtl

#
# object polySurface141
#

v  398.5829 100.0000 39.5494
v  368.9690 100.0000 39.5494
v  368.9690 100.0000 42.9491
v  398.5829 100.0000 42.9491
v  368.9690 -101.9158 39.5494
v  398.5829 -101.9158 39.5494
v  398.5829 -101.9158 42.9491
v  368.9690 -101.9158 42.9491
# 8 vertices

vn 0.0000 1.0000 0.0000
vn 0.0000 -1.0000 -0.0000
vn -1.0000 0.0000 -0.0000
vn 0.0000 -0.0000 1.0000
vn 1.0000 0.0000 -0.0000
# 5 vertex normals

vt 0.6659 0.0219 0.0000
vt 0.6478 0.0219 0.0000
vt 0.6478 0.0139 0.0000
vt 0.6659 0.0139 0.0000
vt 0.6478 0.0320 0.0000
vt 0.6659 0.0320 0.0000
vt 0.6659 0.0399 0.0000
vt 0.6478 0.0399 0.0000
vt 0.6554 0.9927 0.0000
vt 0.6395 0.9927 0.0000
vt 0.6395 0.0501 0.0000
vt 0.6554 0.0501 0.0000
vt 0.4756 0.0032 0.0000
vt 0.4756 0.9976 0.0000
vt 0.3277 0.9976 0.0000
vt 0.3277 0.0032 0.0000
vt 0.6835 0.9926 0.0000
vt 0.6627 0.9926 0.0000
vt 0.6627 0.0512 0.0000
vt 0.6835 0.0512 0.0000
# 20 texture coords

g polySurface141
usemtl lambert36
s off
f 1/1/1 2/2/1 3/3/1 4/4/1 
f 5/5/2 6/6/2 7/7/2 8/8/2 
f 3/9/3 2/10/3 5/11/3 8/12/3 
f 7/13/4 4/14/4 3/15/4 8/16/4 
f 1/17/5 4/18/5 7/19/5 6/20/5 
# 5 polygons

