
mtllib »ú¹ñ_¼ò»¯_±³ÃæÓÒ.mtl

#
# object polySurface142
#

v  428.3224 -101.9158 39.5494
v  428.3224 100.0000 39.5494
v  428.3224 100.0000 42.9491
v  428.3224 -101.9158 42.9491
v  398.7085 -101.9158 39.5494
v  398.7085 -101.9158 42.9491
v  398.7085 100.0000 42.9491
v  398.7085 100.0000 39.5494
# 8 vertices

vn 1.0000 0.0000 -0.0000
vn 0.0000 -1.0000 -0.0000
vn 0.0000 -0.0000 1.0000
vn 0.0000 1.0000 0.0000
vn -1.0000 0.0000 -0.0000
# 5 vertex normals

vt 0.6835 0.0512 0.0000
vt 0.6835 0.9927 0.0000
vt 0.6625 0.9927 0.0000
vt 0.6625 0.0512 0.0000
vt 0.6659 0.0320 0.0000
vt 0.6839 0.0320 0.0000
vt 0.6839 0.0399 0.0000
vt 0.6659 0.0399 0.0000
vt 0.6236 0.0032 0.0000
vt 0.6236 0.9976 0.0000
vt 0.4756 0.9976 0.0000
vt 0.4756 0.0032 0.0000
vt 0.6839 0.0219 0.0000
vt 0.6659 0.0219 0.0000
vt 0.6659 0.0139 0.0000
vt 0.6839 0.0139 0.0000
vt 0.6835 0.9926 0.0000
vt 0.6627 0.9926 0.0000
vt 0.6627 0.0512 0.0000
# 19 texture coords

g polySurface142
usemtl lambert36
s off
f 1/1/1 2/2/1 3/3/1 4/4/1 
f 5/5/2 1/6/2 4/7/2 6/8/2 
f 4/9/3 3/10/3 7/11/3 6/12/3 
f 2/13/4 8/14/4 7/15/4 3/16/4 
f 7/17/5 8/18/5 5/19/5 6/1/5 
# 5 polygons

